<svg width="88" height="88" fill="none" xmlns="http://www.w3.org/2000/svg"><g clip-path="url(#clip0)" filter="url(#filter0_d)"><path d="M61.22 25.373L50.687 35.906l4.079 4.079L65.299 29.45l-4.079-4.078zM39.91 46.706L29.375 57.24l4.079 4.078 10.533-10.533-4.079-4.078zm14.607-28L43.984 29.239l4.078 4.078 10.534-10.533-4.079-4.078zM33.236 40.01L22.702 50.545l4.079 4.078L37.314 44.09l-4.078-4.078zm-6.478-14.637l-4.079 4.078 10.533 10.533 4.079-4.078-10.533-10.533zm6.696-6.674l-4.078 4.078L39.909 33.31l4.078-4.078L33.454 18.7zM54.76 39.98l-4.08 4.08 10.534 10.532 4.078-4.078L54.76 39.981zm-6.668 6.704l-4.078 4.078 10.533 10.533 4.078-4.078-10.533-10.533z" fill="#66C05D"/><path d="M58.606 65.394l-4.067-4.066L44 71.868l-10.54-10.54-4.066 4.066L44 80l14.606-14.606zM22.672 29.46l-4.066-4.066L4 40l14.606 14.606 4.066-4.067L12.132 40l10.54-10.54zm46.722-4.066l-4.066 4.067L75.868 40l-10.54 10.54 4.066 4.066L84 40 69.394 25.394zM54.54 18.672l4.066-4.066L44 0 29.394 14.606l4.067 4.066L44 8.132l10.54 10.54z" fill="#EFEFEF"/></g><defs><clipPath id="clip0"><path fill="#fff" transform="translate(4)" d="M0 0h80v80H0z"/></clipPath><filter id="filter0_d" x="0" y="0" width="88" height="88" filterUnits="userSpaceOnUse" color-interpolation-filters="sRGB"><feFlood flood-opacity="0" result="BackgroundImageFix"/><feColorMatrix in="SourceAlpha" values="0 0 0 0 0 0 0 0 0 0 0 0 0 0 0 0 0 0 127 0"/><feOffset dy="4"/><feGaussianBlur stdDeviation="2"/><feColorMatrix values="0 0 0 0 0 0 0 0 0 0 0 0 0 0 0 0 0 0 0.25 0"/><feBlend in2="BackgroundImageFix" result="effect1_dropShadow"/><feBlend in="SourceGraphic" in2="effect1_dropShadow" result="shape"/></filter></defs></svg>